<svg xmlns="http://www.w3.org/2000/svg" width="602.97" height="643.88" viewBox="0 0 602.97 643.88"><defs><style>.a{fill:#7ac143;}.b{fill:#fff;}</style></defs><title>Asset 1</title><path class="a" d="M319.82,637.88c-37.15,0-59.78-68.51-79.74-128.95-14.08-42.66-27.39-83-45.74-104-19.87-22.8-54.36-33.27-87.71-43.4-23.9-7.26-46.48-14.12-63.35-25-18-11.63-26.46-26.14-26.46-45.67,0-27.77-3.47-50-6.53-69.6C4,180.77.13,156.32,31.57,122.6,76.49,74.41,134.83,47.88,195.82,47.88c23.73,0,63.71-7.81,110-16.84C366,19.3,434.17,6,485.89,6c35.89,0,59.16,6.58,69.18,19.54,20.77,26.87-.79,75.09-23.61,126.14-17,38.09-34.64,77.47-34.64,110.2,0,36.5,26.5,84.19,52.13,130.31,31,55.74,63,113.37,40.32,139.78-19.87,23.14-65.68,49.37-125.68,72C408.86,624.56,352.42,637.88,319.82,637.88Z"/><path class="b" d="M485.91,12c23.32,0,53.42,3,64.42,17.21,18.56,24-3.25,72.83-24.35,120-17.29,38.66-35.16,78.64-35.16,112.65,0,38.05,26.89,86.44,52.89,133.23,16.56,29.8,32.2,57.95,40.83,82.54,4.3,12.25,6.46,22.72,6.43,31.11,0,8.13-2.08,14.44-6.25,19.3-19,22.07-65,48.34-123.24,70.27-54.12,20.38-109.72,33.55-141.66,33.55-13.74,0-26.72-11.74-39.66-35.87s-23.87-57.14-34.38-89c-14.28-43.25-27.77-84.1-46.91-106-21-24.1-56.34-34.83-90.5-45.2-23.49-7.14-45.67-13.88-61.84-24.29C30.13,321,22.82,308.42,22.82,290.88c0-28.24-3.51-50.7-6.61-70.52s-5.52-35.32-3.45-50c2.16-15.33,9.31-28.8,23.2-43.69,43.77-47,100.55-72.82,159.86-72.82,24.31,0,64.56-7.86,111.16-17C366.87,25.25,434.75,12,485.9,12h0m0-12C393.74,0,249.34,41.88,195.82,41.88c-65,0-124.28,29.05-168.64,76.63-49.41,53-16.36,88-16.36,172.37,0,80.88,133.14,65.4,179,118,45,51.55,61.93,235,130,235,68.76,0,228.94-55.52,274-108s-91-193.92-91-274c0-74.56,96.7-188.63,57-240C547.43,5.84,520.31,0,485.89,0Z"/></svg>